<svg width="100%" height="100%" viewBox="0 0 3930 2641" version="1.1" xmlns="http://www.w3.org/2000/svg" xmlns:xlink="http://www.w3.org/1999/xlink" xml:space="preserve" xmlns:serif="http://www.serif.com/" style="fill-rule:evenodd;clip-rule:evenodd;stroke-linejoin:round;stroke-miterlimit:2;">
    <g transform="matrix(1,0,0,1,-8682,-13713)">
        <g transform="matrix(0.880743,0,0,1,295.688,-0.194574)">
            <g id="cloud">
                <g id="_27" serif:id="27" transform="matrix(2.43423,0,0,2.14393,-10445.1,-15014.6)">
                    <text x="9161.53px" y="13735.1px" style="font-family:'SourceSansPro-SemiBold', 'Source Sans Pro', sans-serif;font-weight:600;font-size:180.703px;fill:rgb(32,32,32);">AI</text>
                </g>
                <g id="_26" serif:id="26" transform="matrix(1.1354,0,0,1,-872.726,94.7706)">
                    <text x="10079.7px" y="13885.9px" style="font-family:'SourceSansPro-SemiBold', 'Source Sans Pro', sans-serif;font-weight:600;font-size:180.703px;fill:rgb(32,32,32);">Pr<tspan x="10250.5px " y="13885.9px ">o</tspan>mp<tspan x="10599.9px 10663.4px " y="13885.9px 13885.9px ">ts</tspan></text>
                </g>
                <g id="_25" serif:id="25" transform="matrix(0.689654,0,0,0.607408,12468.6,13960.9)">
                    <text x="0px" y="0px" style="font-family:'SourceSansPro-SemiBold', 'Source Sans Pro', sans-serif;font-weight:600;font-size:180.703px;fill:rgb(32,32,32);">E<tspan x="90.351px " y="0px ">x</tspan>plor<tspan x="490.065px 580.417px " y="0px 0px ">at</tspan>ion</text>
                </g>
                <g id="_24" serif:id="24" transform="matrix(1.1354,0,0,1,11628.1,14722.3)">
                    <text x="0px" y="0px" style="font-family:'SourceSansPro-SemiBold', 'Source Sans Pro', sans-serif;font-weight:600;font-size:180.703px;fill:rgb(32,32,32);">Cr<tspan x="169.68px 259.128px 349.479px " y="0px 0px 0px ">eat</tspan>ion</text>
                </g>
                <g id="_23" serif:id="23" transform="matrix(1.1354,0,0,1,12223,14394.2)">
                    <text x="0px" y="0px" style="font-family:'SourceSansPro-SemiBold', 'Source Sans Pro', sans-serif;font-weight:600;font-size:180.703px;fill:rgb(32,32,32);">Collec<tspan x="474.525px " y="0px ">t</tspan>ion</text>
                </g>
                <g id="_22" serif:id="22" transform="matrix(1.1354,0,0,1,12030.8,15014.2)">
                    <text x="0px" y="0px" style="font-family:'SourceSansPro-SemiBold', 'Source Sans Pro', sans-serif;font-weight:600;font-size:180.703px;fill:rgb(32,32,32);">Inno<tspan x="351.467px 437.3px 527.652px " y="0px 0px 0px ">vat</tspan>ion</text>
                </g>
                <g id="_21" serif:id="21" transform="matrix(1.1354,0,0,1,411.342,42.1965)">
                    <text x="10335.9px" y="15660.2px" style="font-family:'SourceSansPro-SemiBold', 'Source Sans Pro', sans-serif;font-weight:600;font-size:180.703px;fill:rgb(32,32,32);">Community</text>
                </g>
                <g id="_20" serif:id="20" transform="matrix(2.33391,0,0,2.05558,11692.1,15383.3)">
                    <text x="0px" y="0px" style="font-family:'SourceSansPro-SemiBold', 'Source Sans Pro', sans-serif;font-weight:600;font-size:180.703px;fill:rgb(32,32,32);">Open-sour<tspan x="817.86px 897.008px " y="0px 0px ">ce</tspan></text>
                </g>
                <g id="_19" serif:id="19" transform="matrix(1.1354,0,0,1,10878.7,15684.4)">
                    <text x="0px" y="0px" style="font-family:'SourceSansPro-SemiBold', 'Source Sans Pro', sans-serif;font-weight:600;font-size:180.703px;fill:rgb(32,32,32);">Inspir<tspan x="441.999px 532.35px " y="0px 0px ">at</tspan>ion</text>
                </g>
                <g id="_18" serif:id="18" transform="matrix(0.838771,0,0,0.738742,11045.1,15376.2)">
                    <text x="0px" y="0px" style="font-family:'SourceSansPro-SemiBold', 'Source Sans Pro', sans-serif;font-weight:600;font-size:180.703px;fill:rgb(32,32,32);">L<tspan x="88.364px 177.811px " y="0px 0px ">ea</tspan>rning</text>
                </g>
                <g id="_17" serif:id="17" transform="matrix(0.726634,0,0,0.639978,11469.6,13796)">
                    <text x="0px" y="0px" style="font-family:'SourceSansPro-SemiBold', 'Source Sans Pro', sans-serif;font-weight:600;font-size:180.703px;fill:rgb(32,32,32);">R<tspan x="105.169px " y="0px ">e</tspan>put<tspan x="460.611px 550.962px " y="0px 0px ">at</tspan>ion</text>
                </g>
                <g id="_16" serif:id="16" transform="matrix(0.669061,0,0,0.589271,13093.2,15935.8)">
                    <text x="0px" y="0px" style="font-family:'SourceSansPro-SemiBold', 'Source Sans Pro', sans-serif;font-weight:600;font-size:180.703px;fill:rgb(32,32,32);">F<tspan x="89.267px " y="0px ">o</tspan>rking</text>
                </g>
                <g id="_15" serif:id="15" transform="matrix(0.710542,0,0,0.625805,13021.8,14778.6)">
                    <text x="0px" y="0px" style="font-family:'SourceSansPro-SemiBold', 'Source Sans Pro', sans-serif;font-weight:600;font-size:180.703px;fill:rgb(32,32,32);">Eng<tspan x="289.124px 382.367px 473.441px " y="0px 0px 0px ">age</tspan>ment</text>
                </g>
                <g id="_14" serif:id="14" transform="matrix(1.1354,0,0,1,9817.17,15399.7)">
                    <text x="0px" y="0px" style="font-family:'SourceSansPro-SemiBold', 'Source Sans Pro', sans-serif;font-weight:600;font-size:180.703px;fill:rgb(32,32,32);">Disc<tspan x="317.314px 415.435px 503.799px 595.415px 665.708px " y="0px 0px 0px 0px 0px ">overy</tspan></text>
                </g>
                <g id="_13" serif:id="13" transform="matrix(0.87376,0,0,0.769558,10584.3,15969.2)">
                    <text x="0px" y="0px" style="font-family:'SourceSansPro-SemiBold', 'Source Sans Pro', sans-serif;font-weight:600;font-size:180.703px;fill:rgb(32,32,32);">U<tspan x="117.276px " y="0px ">s</tspan>er<tspan x="349.479px 407.665px 496.209px " y="0px 0px 0px ">-Fr</tspan>iendly</text>
                </g>
                <g id="_12" serif:id="12" transform="matrix(0.733254,0,0,0.645809,10122.3,14177.7)">
                    <text x="0px" y="0px" style="font-family:'SourceSansPro-SemiBold', 'Source Sans Pro', sans-serif;font-weight:600;font-size:180.703px;fill:rgb(32,32,32);">Int<tspan x="214.494px 306.11px 368.814px 462.057px 543.734px " y="0px 0px 0px 0px 0px ">eract</tspan>iv<tspan x="744.675px " y="0px ">e</tspan></text>
                </g>
                <g id="_11" serif:id="11" transform="matrix(1.1354,0,0,1,10937.4,15099.5)">
                    <text x="0px" y="0px" style="font-family:'SourceSansPro-SemiBold', 'Source Sans Pro', sans-serif;font-weight:600;font-size:180.703px;fill:rgb(32,32,32);">V<tspan x="93.785px 185.401px 251.719px 329.602px 419.953px " y="0px 0px 0px 0px 0px ">ersat</tspan>ility</text>
                </g>
                <g id="_10" serif:id="10" transform="matrix(1.1354,0,0,1,11477.7,14125.1)">
                    <text x="0px" y="0px" style="font-family:'SourceSansPro-SemiBold', 'Source Sans Pro', sans-serif;font-weight:600;font-size:180.703px;fill:rgb(32,32,32);">Div<tspan x="248.647px 340.263px 406.581px " y="0px 0px 0px ">ers</tspan>e</text>
                </g>
                <g id="_9" serif:id="9" transform="matrix(1.1354,0,0,1,9505.93,14638.7)">
                    <text x="0px" y="0px" style="font-family:'SourceSansPro-SemiBold', 'Source Sans Pro', sans-serif;font-weight:600;font-size:180.703px;fill:rgb(32,32,32);">R<tspan x="105.169px 196.785px 275.933px " y="0px 0px 0px ">eco</tspan>gnition</text>
                </g>
                <g id="_8" serif:id="8" transform="matrix(1.1354,0,0,1,10552.6,14432.5)">
                    <text x="0px" y="0px" style="font-family:'SourceSansPro-SemiBold', 'Source Sans Pro', sans-serif;font-weight:600;font-size:180.703px;fill:rgb(32,32,32);">Ac<tspan x="179.98px 259.128px " y="0px 0px ">ce</tspan>ssibility</text>
                </g>
                <g id="_7" serif:id="7" transform="matrix(1.1354,0,0,1,11810.3,16054.4)">
                    <text x="0px" y="0px" style="font-family:'SourceSansPro-SemiBold', 'Source Sans Pro', sans-serif;font-weight:600;font-size:180.703px;fill:rgb(32,32,32);">V<tspan x="91.616px " y="0px ">a</tspan>lue</text>
                </g>
                <g id="_6" serif:id="6" transform="matrix(0.804501,0,0,0.708559,11262.9,16325.7)">
                    <text x="0px" y="0px" style="font-family:'SourceSansPro-SemiBold', 'Source Sans Pro', sans-serif;font-weight:600;font-size:180.703px;fill:rgb(32,32,32);">Kno<tspan x="307.194px " y="0px ">w</tspan>ledg<tspan x="775.937px " y="0px ">e</tspan></text>
                </g>
                <g id="_5" serif:id="5" transform="matrix(0.598696,0,0,0.527298,10814.9,14630.4)">
                    <text x="0px" y="0px" style="font-family:'SourceSansPro-SemiBold', 'Source Sans Pro', sans-serif;font-weight:600;font-size:180.703px;fill:rgb(32,32,32);">Gr<tspan x="179.076px 277.198px " y="0px 0px ">ow</tspan>th</text>
                </g>
                <g id="_4" serif:id="4" transform="matrix(0.641342,0,0,0.564858,9787.42,15120.5)">
                    <text x="0px" y="0px" style="font-family:'SourceSansPro-SemiBold', 'Source Sans Pro', sans-serif;font-weight:600;font-size:180.703px;fill:rgb(32,32,32);">Empo<tspan x="449.588px 583.669px " y="0px 0px ">we</tspan>rment</text>
                </g>
                <g id="_3" serif:id="3" transform="matrix(0.708566,0,0,0.624065,10176.5,16171.3)">
                    <text x="0px" y="0px" style="font-family:'SourceSansPro-SemiBold', 'Source Sans Pro', sans-serif;font-weight:600;font-size:180.703px;fill:rgb(32,32,32);">Ne<tspan x="208.35px 273.584px 407.665px " y="0px 0px 0px ">two</tspan>rking</text>
                </g>
                <g id="_2" serif:id="2" transform="matrix(1.1354,0,0,1,9523.37,15746.9)">
                    <text x="0px" y="0px" style="font-family:'SourceSansPro-SemiBold', 'Source Sans Pro', sans-serif;font-weight:600;font-size:180.703px;fill:rgb(32,32,32);">Achiev<tspan x="512.473px " y="0px ">e</tspan>ment</text>
                </g>
                <g id="_1" serif:id="1" transform="matrix(1.50246,0,0,1.32328,10441.3,14873.9)">
                    <text x="0px" y="0px" style="font-family:'SourceSansPro-SemiBold', 'Source Sans Pro', sans-serif;font-weight:600;font-size:180.703px;fill:rgb(32,32,32);">Cr<tspan x="169.68px 259.128px 349.479px " y="0px 0px 0px ">eat</tspan>ivity</text>
                </g>
            </g>
        </g>
    </g>
</svg>
