<?xml version="1.0" encoding="UTF-8" standalone="no"?>
<!DOCTYPE svg PUBLIC "-//W3C//DTD SVG 1.1//EN" "http://www.w3.org/Graphics/SVG/1.1/DTD/svg11.dtd">
<svg width="100%" height="100%" viewBox="0 0 1092 1048" version="1.1" xmlns="http://www.w3.org/2000/svg" xmlns:xlink="http://www.w3.org/1999/xlink" xml:space="preserve" xmlns:serif="http://www.serif.com/" style="fill-rule:evenodd;clip-rule:evenodd;stroke-linejoin:round;stroke-miterlimit:2;">
    <g transform="matrix(1,0,0,1,-5579,-22657)">
        <g transform="matrix(1,0,0,1,-26623.9,9530.87)">
            <g id="fathart-icon" transform="matrix(0.793454,0,0,1,6712.62,-948.095)">
                <path d="M32813.3,14231.1C32671.5,14179.3 32506.3,14208.2 32408.5,14277.9L32408.5,14277.9C32285.5,14365.5 32243.2,14539.3 32365.2,14714.7C32427.5,14807.7 32577.6,14905.8 32708.1,14967.7L32813.3,15017.7L32918.5,14967.7C33049,14905.8 33199.1,14807.7 33261.4,14714.7C33383.4,14539.3 33341.1,14365.5 33218.1,14277.9C33120.3,14208.2 32955.1,14179.3 32813.3,14231.1ZM32813.3,14446.5C32880.3,14351 33014.3,14351 33081.3,14398.8C33148.2,14446.5 33148.2,14541.9 33081.3,14637.4C33034.4,14709 32913.8,14780.6 32813.3,14828.3C32712.8,14780.6 32592.3,14709 32545.4,14637.4C32478.4,14541.9 32478.4,14446.5 32545.4,14398.8C32612.4,14351 32746.3,14351 32813.3,14446.5Z"/>
            </g>
        </g>
    </g>
</svg>
