<?xml version="1.0" encoding="UTF-8" standalone="no"?>
<!DOCTYPE svg PUBLIC "-//W3C//DTD SVG 1.1//EN" "http://www.w3.org/Graphics/SVG/1.1/DTD/svg11.dtd">
<svg width="100%" height="100%" viewBox="0 0 777 733" version="1.1" xmlns="http://www.w3.org/2000/svg" xmlns:xlink="http://www.w3.org/1999/xlink" xml:space="preserve" xmlns:serif="http://www.serif.com/" style="fill-rule:evenodd;clip-rule:evenodd;stroke-linejoin:round;stroke-miterlimit:2;">
    <g transform="matrix(1,0,0,1,-5736,-24626)">
        <g transform="matrix(1,0,0,1,-26623.9,9530.87)">
            <g id="fullhart-icon" transform="matrix(0.793454,0,0,1,6712.62,863.844)">
                <path d="M32813.3,14446.5C32880.3,14351 33014.3,14351 33081.3,14398.8C33148.2,14446.5 33148.2,14541.9 33081.3,14637.4C33034.4,14709 32913.8,14780.6 32813.3,14828.3C32712.8,14780.6 32592.3,14709 32545.4,14637.4C32478.4,14541.9 32478.4,14446.5 32545.4,14398.8C32612.4,14351 32746.3,14351 32813.3,14446.5Z"/>
                <path d="M32813.3,14333.5C32705.1,14269.4 32562.1,14286 32482.2,14343C32389.4,14409.1 32369.9,14540.8 32462.2,14673C32516.2,14754.5 32650.4,14838.3 32764.8,14892.7L32813.3,14915.7L32861.9,14892.7C32976.2,14838.3 33110.5,14754.5 33164.5,14673C33256.7,14540.8 33237.2,14409.1 33144.4,14343C33064.5,14286 32921.5,14269.4 32813.3,14333.5ZM32813.3,14446.5C32880.3,14351 33014.3,14351 33081.3,14398.8C33148.2,14446.5 33148.2,14541.9 33081.3,14637.4C33034.4,14709 32913.8,14780.6 32813.3,14828.3C32712.8,14780.6 32592.3,14709 32545.4,14637.4C32478.4,14541.9 32478.4,14446.5 32545.4,14398.8C32612.4,14351 32746.3,14351 32813.3,14446.5Z"/>
            </g>
        </g>
    </g>
</svg>
