<?xml version="1.0" encoding="UTF-8" standalone="no"?>
<!DOCTYPE svg PUBLIC "-//W3C//DTD SVG 1.1//EN" "http://www.w3.org/Graphics/SVG/1.1/DTD/svg11.dtd">
<svg width="100%" height="100%" viewBox="0 0 1446 1521" version="1.1" xmlns="http://www.w3.org/2000/svg" xmlns:xlink="http://www.w3.org/1999/xlink" xml:space="preserve" xmlns:serif="http://www.serif.com/" style="fill-rule:evenodd;clip-rule:evenodd;stroke-linejoin:round;stroke-miterlimit:2;">
    <g transform="matrix(1,0,0,1,-3328,-39577)">
        <g transform="matrix(1.60078,0,0,2.76956,-24239.2,24732.2)">
            <g transform="matrix(1.62294,0,0,1.62294,-8209.34,-3763.39)">
                <g id="logo">
                    <g id="weprompt-logo">
                        <g transform="matrix(0.386002,0,0,0.222478,14364.6,-871.573)">
                            <path d="M3380.7,30405.7L3380.7,29186.2L4652.32,29186.2L4652.32,30156.5L3593.49,30154.6L3380.7,30405.7Z" style="fill:white;"/>
                        </g>
                        <g transform="matrix(1.04654,-1.84889e-32,-1.2326e-32,0.604894,9816.53,4234.79)">
                            <text x="5707.27px" y="2517.81px" style="font-family:'SourceSansPro-Black', 'Source Sans Pro', sans-serif;font-weight:900;font-size:191.667px;">w<tspan x="5848.72px " y="2517.81px ">e</tspan></text>
                        </g>
                        <g transform="matrix(0.746977,-1.31966e-32,-8.79773e-33,0.431747,11566.3,4858.09)">
                            <text x="5707.27px" y="2517.81px" style="font-family:'SourceSansPro-Black', 'Source Sans Pro', sans-serif;font-weight:900;font-size:191.667px;fill:white;">r<tspan x="5785.47px " y="2517.81px ">o</tspan>mp</text>
                            <text x="6164.58px" y="2517.81px" style="font-family:'SourceSansPro-Black', 'Source Sans Pro', sans-serif;font-weight:900;font-size:191.667px;fill:white;">t</text>
                        </g>
                    </g>
                </g>
            </g>
        </g>
    </g>
</svg>
