<?xml version="1.0" encoding="UTF-8" standalone="no"?>
<!DOCTYPE svg PUBLIC "-//W3C//DTD SVG 1.1//EN" "http://www.w3.org/Graphics/SVG/1.1/DTD/svg11.dtd">
<svg width="100%" height="100%" viewBox="0 0 563 714" version="1.1" xmlns="http://www.w3.org/2000/svg" xmlns:xlink="http://www.w3.org/1999/xlink" xml:space="preserve" xmlns:serif="http://www.serif.com/" style="fill-rule:evenodd;clip-rule:evenodd;stroke-linejoin:round;stroke-miterlimit:2;">
    <g transform="matrix(1,0,0,1,-5843,-25710)">
        <g transform="matrix(1,0,0,1,-26623.9,9530.87)">
            <g id="remix" transform="matrix(-2.18764e-16,1.19089,-1.19089,-2.18764e-16,51639.5,-25801.1)">
                <g transform="matrix(1,0,0,1,26623.9,-9530.87)">
                    <path d="M8657.72,25506.5C8609.94,25516.6 8625.98,25573.2 8655.21,25575.5L8812.98,25573.9C8853.93,25564.7 8877.55,25533.4 8890.42,25495.1L8982.07,25299.5C8986.94,25290.3 8994.77,25283.7 9006.65,25280.8L9077.75,25282.2L9071.38,25293.2C9070.76,25325.6 9085.82,25336.8 9114.37,25334.1L9217.03,25272.5C9228.68,25259.2 9230.24,25232.1 9215.51,25218.6L9117.95,25159.9C9105.41,25156.4 9093.23,25156.6 9081.86,25165.6C9069.51,25178.1 9068.64,25193.2 9075.34,25209.9L8995.95,25213.6C8969.72,25216.6 8947.23,25229.4 8928.79,25252.7L8822.94,25477.6C8817.38,25495.6 8807.58,25504.9 8794.05,25506.8L8657.72,25506.5Z"/>
                </g>
                <g>
                    <g transform="matrix(1,0,0,-1,26623.9,41256.7)">
                        <path d="M8956.75,25353.5L8982.07,25299.5C8986.94,25290.3 8994.77,25283.7 9006.65,25280.8L9077.75,25282.2L9071.38,25293.2C9070.76,25325.6 9085.82,25336.8 9114.37,25334.1L9217.03,25272.5C9228.68,25259.2 9230.24,25232.1 9215.51,25218.6L9117.95,25159.9C9105.41,25156.4 9093.23,25156.6 9081.86,25165.6C9069.51,25178.1 9068.64,25193.2 9075.34,25209.9L8995.95,25213.6C8969.72,25216.6 8947.23,25229.4 8928.79,25252.7L8918.4,25274.8"/>
                    </g>
                    <g transform="matrix(1,0,0,-1,26623.9,41256.7)">
                        <path d="M8844.34,25432.1L8822.94,25477.6C8817.38,25495.6 8807.58,25504.9 8794.05,25506.8L8657.72,25506.5C8609.94,25516.6 8625.98,25573.2 8655.21,25575.5L8812.98,25573.9C8847.93,25566 8870.25,25542.1 8884.05,25511.4"/>
                    </g>
                </g>
            </g>
        </g>
    </g>
</svg>
